<svg xmlns="http://www.w3.org/2000/svg" viewBox="0 0 128 128" fill="none">
  <rect x="15" y="15" width="98" height="98" rx="16" stroke="#4a5562" stroke-width="6"/>
  <path d="M24 28v72" stroke="#4a5562" stroke-width="6" stroke-linecap="round"/>
  <path d="M24 44c10 10 16 24 18 40" stroke="#4a5562" stroke-width="6" stroke-linecap="round"/>
  <path d="M104 28h-18c-4.418 0-8 3.582-8 8v4c0 4.418 3.582 8 8 8h10" stroke="#4a5562" stroke-width="6" stroke-linecap="round" stroke-linejoin="round"/>
  <path d="M90 28v11" stroke="#4a5562" stroke-width="6" stroke-linecap="round"/>
  <rect x="49" y="35" width="30" height="44" rx="7" stroke="#4a5562" stroke-width="6"/>
  <circle cx="64" cy="45" r="4.5" fill="#4a5562"/>
  <circle cx="64" cy="68" r="4.5" fill="#4a5562"/>
  <path d="M60 49h8v15h-8z" fill="#4a5562"/>
  <path d="M46 92h36" stroke="#4a5562" stroke-width="6" stroke-linecap="round"/>
  <path d="M86 61h10" stroke="#4a5562" stroke-width="6" stroke-linecap="round"/>
  <path d="M86 72h6" stroke="#4a5562" stroke-width="6" stroke-linecap="round"/>
</svg>
