<svg xmlns="http://www.w3.org/2000/svg" viewBox="0 0 960 410" width="960" height="410" role="img"><title>A noisy secondhand tape library with missing cartridges, a loose drive, a mystery password note and a wrench</title><rect width="960" height="410" rx="22" fill="#f7f6fa"/><rect x="210" y="70" width="540" height="270" rx="14" fill="#39354a"/><rect x="226" y="86" width="508" height="190" rx="8" fill="#161320"/><rect x="240" y="96" width="42" height="50" rx="5" fill="#5b27d6"/><rect x="293" y="96" width="42" height="50" rx="5" fill="#4a1fb0"/><rect x="399" y="96" width="42" height="50" rx="5" fill="#5b27d6"/><rect x="452" y="96" width="42" height="50" rx="5" fill="#4a1fb0"/><rect x="505" y="96" width="42" height="50" rx="5" fill="#2a8fb8"/><rect x="558" y="96" width="42" height="50" rx="5" fill="#5b27d6"/><rect x="611" y="96" width="42" height="50" rx="5" fill="#4a1fb0"/><rect x="664" y="96" width="42" height="50" rx="5" fill="#2a8fb8"/><rect x="240" y="156" width="42" height="50" rx="5" fill="#4a1fb0"/><rect x="293" y="156" width="42" height="50" rx="5" fill="#2a8fb8"/><rect x="346" y="156" width="42" height="50" rx="5" fill="#5b27d6"/><rect x="399" y="156" width="42" height="50" rx="5" fill="#4a1fb0"/><rect x="505" y="156" width="42" height="50" rx="5" fill="#5b27d6"/><rect x="558" y="156" width="42" height="50" rx="5" fill="#4a1fb0"/><rect x="611" y="156" width="42" height="50" rx="5" fill="#2a8fb8"/><rect x="664" y="156" width="42" height="50" rx="5" fill="#5b27d6"/><rect x="240" y="216" width="42" height="50" rx="5" fill="#2a8fb8"/><rect x="293" y="216" width="42" height="50" rx="5" fill="#5b27d6"/><rect x="346" y="216" width="42" height="50" rx="5" fill="#4a1fb0"/><rect x="399" y="216" width="42" height="50" rx="5" fill="#2a8fb8"/><rect x="452" y="216" width="42" height="50" rx="5" fill="#5b27d6"/><rect x="505" y="216" width="42" height="50" rx="5" fill="#4a1fb0"/><rect x="558" y="216" width="42" height="50" rx="5" fill="#2a8fb8"/><rect x="664" y="216" width="42" height="50" rx="5" fill="#4a1fb0"/><rect x="226" y="290" width="200" height="34" rx="6" fill="#161320"/><circle cx="700" cy="307" r="8" fill="#d4483b"/><g transform="rotate(-6 560 310)"><rect x="480" y="288" width="200" height="40" rx="9" fill="#39354a"/><rect x="494" y="300.0" width="110.00000000000001" height="8.0" rx="4" fill="#161320"/><rect x="494" y="312.8" width="50.0" height="6" rx="3" fill="#9a96a8"/><circle cx="660" cy="302.0" r="7" fill="#6e6a7c"/><rect x="640" y="312.8" width="26" height="6" rx="3" fill="#9a96a8" opacity=".7"/></g><path d="M811.0 129.0 A30 30 0 0 1 811.0 171.0" fill="none" stroke="#d4483b" stroke-width="5" stroke-linecap="round"/><path d="M822.2 117.8 A46 46 0 0 1 822.2 182.2" fill="none" stroke="#d4483b" stroke-width="5" stroke-linecap="round"/><path d="M833.4 106.6 A62 62 0 0 1 833.4 193.4" fill="none" stroke="#d4483b" stroke-width="5" stroke-linecap="round"/><path d="M149.0 129.0 A30 30 0 0 0 149.0 171.0" fill="none" stroke="#d4483b" stroke-width="5" stroke-linecap="round"/><path d="M137.8 117.8 A46 46 0 0 0 137.8 182.2" fill="none" stroke="#d4483b" stroke-width="5" stroke-linecap="round"/><path d="M126.6 106.6 A62 62 0 0 0 126.6 193.4" fill="none" stroke="#d4483b" stroke-width="5" stroke-linecap="round"/><polygon points="850,63.0 880.6,113.4 819.4,113.4" fill="#d98a1c" stroke="#d98a1c" stroke-width="7.2" stroke-linejoin="round"/><rect x="847.3" y="79.2" width="5.4" height="18.0" fill="#fff"/><circle cx="850" cy="106.2" r="3.24" fill="#fff"/><g transform="rotate(5 120 300)"><rect x="60" y="270" width="110" height="80" rx="4" fill="#d98a1c" opacity=".9"/><rect x="74" y="290" width="70" height="8" rx="4" fill="#fff"/><rect x="74" y="308" width="52" height="8" rx="4" fill="#fff"/></g><text x="150" y="335" font-family="'Space Grotesk','Hanken Grotesk',system-ui,-apple-system,'Segoe UI',sans-serif" font-size="36" font-weight="700" fill="#fff" text-anchor="middle">?</text><g transform="translate(820,300) rotate(40) scale(1.3)"><rect x="-6" y="-10" width="12" height="62" rx="6" fill="#6e6a7c"/><circle cx="0" cy="-14" r="16" fill="#6e6a7c"/><rect x="-6" y="-34" width="12" height="20" fill="#f7f6fa"/></g><circle cx="770" cy="372" r="6" fill="#9a96a8"/><circle cx="880" cy="365" r="6" fill="#9a96a8"/><circle cx="845" cy="385" r="5" fill="#9a96a8"/><rect x="160" y="352" width="60" height="10" rx="4" fill="#9a96a8" transform="rotate(-14 190 357)"/></svg>
