<svg xmlns="http://www.w3.org/2000/svg" viewBox="0 0 960 400" width="960" height="400" role="img"><title>A noisy tape drive, a bug, and several confusing device names on a Linux terminal</title><rect width="960" height="400" rx="22" fill="#f7f6fa"/><rect x="60" y="250" width="840" height="100" rx="16" fill="#f0eef5"/><rect x="120" y="190" width="240" height="86" rx="9" fill="#39354a"/><rect x="134" y="215.8" width="132.0" height="17.2" rx="4" fill="#161320"/><rect x="134" y="243.32" width="60.0" height="6" rx="3" fill="#9a96a8"/><circle cx="340" cy="220.1" r="7" fill="#1f9d6b"/><rect x="320" y="243.32" width="26" height="6" rx="3" fill="#9a96a8" opacity=".7"/><path d="M406.8 183.2 A24 24 0 0 1 406.8 216.8" fill="none" stroke="#5b27d6" stroke-width="5" stroke-linecap="round"/><path d="M418.0 172.0 A40 40 0 0 1 418.0 228.0" fill="none" stroke="#5b27d6" stroke-width="5" stroke-linecap="round"/><path d="M429.2 160.8 A56 56 0 0 1 429.2 239.2" fill="none" stroke="#5b27d6" stroke-width="5" stroke-linecap="round"/><path d="M440.4 149.6 A72 72 0 0 1 440.4 250.4" fill="none" stroke="#5b27d6" stroke-width="5" stroke-linecap="round"/><path d="M73.2 183.2 A24 24 0 0 0 73.2 216.8" fill="none" stroke="#5b27d6" stroke-width="5" stroke-linecap="round"/><path d="M62.0 172.0 A40 40 0 0 0 62.0 228.0" fill="none" stroke="#5b27d6" stroke-width="5" stroke-linecap="round"/><path d="M50.8 160.8 A56 56 0 0 0 50.8 239.2" fill="none" stroke="#5b27d6" stroke-width="5" stroke-linecap="round"/><text x="240" y="310" font-family="'Space Grotesk','Hanken Grotesk',system-ui,-apple-system,'Segoe UI',sans-serif" font-size="24" font-weight="700" fill="#6e6a7c" text-anchor="middle">LTO-5</text><g transform="translate(590,150)"><rect width="75.60000000000001" height="99.0" rx="9.0" fill="#b9b5c6"/><circle cx="37.800000000000004" cy="41.4" r="27.0" fill="#fff" opacity=".9"/><circle cx="37.800000000000004" cy="41.4" r="5.4" fill="#b9b5c6"/><path d="M63.00000000000001 84.6 L48.60000000000001 48.6" stroke="#fff" stroke-width="4.5" stroke-linecap="round"/><circle cx="63.00000000000001" cy="84.6" r="5.4" fill="#fff"/></g><path d="M575 130 L690 280 M690 130 L575 280" stroke="#39354a" stroke-width="8" stroke-linecap="round" opacity=".0"/><g transform="translate(520,150) scale(1.0)"><path d="M-18 -12 L-34 -20 M18 -12 L34 -20" stroke="#d4483b" stroke-width="4" stroke-linecap="round"/><path d="M-18 4 L-34 -4 M18 4 L34 -4" stroke="#d4483b" stroke-width="4" stroke-linecap="round"/><path d="M-18 20 L-34 12 M18 20 L34 12" stroke="#d4483b" stroke-width="4" stroke-linecap="round"/><ellipse cx="0" cy="8" rx="20" ry="26" fill="#d4483b"/><circle cx="0" cy="-24" r="12" fill="#d4483b"/><path d="M-6 -34 l-8 -12 M6 -34 l8 -12" stroke="#d4483b" stroke-width="4" stroke-linecap="round"/><line x1="0" y1="-16" x2="0" y2="34" stroke="#fff" stroke-width="3"/></g><rect x="590.0" y="311" width="120" height="38" rx="19" fill="#fff" stroke="#dedce6" stroke-width="2"/><text x="650" y="337" font-family="'Space Mono',ui-monospace,Menlo,monospace" font-size="19" font-weight="700" fill="#161320" text-anchor="middle">/dev/st0</text><rect x="725.0" y="311" width="130" height="38" rx="19" fill="#fff" stroke="#dedce6" stroke-width="2"/><text x="790" y="337" font-family="'Space Mono',ui-monospace,Menlo,monospace" font-size="19" font-weight="700" fill="#161320" text-anchor="middle">/dev/nst0</text><rect x="725.0" y="261" width="130" height="38" rx="19" fill="#fff" stroke="#d98a1c" stroke-width="2"/><text x="790" y="287" font-family="'Space Mono',ui-monospace,Menlo,monospace" font-size="19" font-weight="700" fill="#d98a1c" text-anchor="middle">/dev/sg1</text><path d="M495 205 q40 40 100 20" fill="none" stroke="#9a96a8" stroke-width="3" stroke-dasharray="3 9"/><text x="790" y="230" font-family="'Space Grotesk','Hanken Grotesk',system-ui,-apple-system,'Segoe UI',sans-serif" font-size="56" font-weight="700" fill="#d98a1c" text-anchor="middle">?</text><rect x="690" y="100" width="190" height="60" rx="10" fill="#161320"/><rect x="704" y="118" width="70" height="8" rx="4" fill="#1f9d6b"/><rect x="704" y="134" width="120" height="8" rx="4" fill="#9a96a8"/></svg>
