<svg xmlns="http://www.w3.org/2000/svg" viewBox="0 0 960 420" width="960" height="420" role="img"><title>A powered hard drive with a 3 to 7 year life next to an unpowered LTO cartridge rated 20 to 30 years or more</title><rect width="960" height="420" rx="22" fill="#f7f6fa"/><rect x="40" y="40" width="420" height="340" rx="18" fill="#fff" stroke="#dedce6" stroke-width="2"/><rect x="500" y="40" width="420" height="340" rx="18" fill="#f2ecfd" stroke="#dedce6" stroke-width="2"/><g transform="translate(90,90)"><rect width="84.0" height="110.0" rx="10.0" fill="#39354a"/><circle cx="42.0" cy="46.0" r="30.0" fill="#fff" opacity=".9"/><circle cx="42.0" cy="46.0" r="6.0" fill="#39354a"/><path d="M70.0 94.0 L54.0 54.0" stroke="#fff" stroke-width="5.0" stroke-linecap="round"/><circle cx="70.0" cy="94.0" r="6.0" fill="#fff"/></g><path transform="translate(210,130) scale(1.4)" d="M6 -22 L-12 4 H-1 L-6 22 L12 -4 H1 z" fill="#d98a1c"/><g transform="translate(250,100)"><rect width="56" height="50.4" rx="7" fill="#fff" stroke="#39354a" stroke-width="4"/><rect width="56" height="15.680000000000001" rx="6" fill="#39354a"/><rect x="11.200000000000001" y="25.76" width="10.08" height="7.840000000000001" fill="#39354a" opacity=".5"/><rect x="28.0" y="25.76" width="10.08" height="7.840000000000001" fill="#39354a" opacity=".5"/><rect x="11.200000000000001" y="38.080000000000005" width="10.08" height="5.6000000000000005" fill="#39354a" opacity=".5"/></g><text x="278" y="185" font-family="'Space Grotesk','Hanken Grotesk',system-ui,-apple-system,'Segoe UI',sans-serif" font-size="26" font-weight="700" fill="#39354a" text-anchor="middle">3–7</text><rect x="90" y="262" width="340" height="2" fill="#dedce6"/><g transform="translate(550,100) rotate(0 55.00000000000001 50.6)"><rect width="110.00000000000001" height="101.2" rx="9.9" fill="#5b27d6"/><path d="M88.00000000000001 0 h12.100000000000001 a9.9 9.9 0 0 1 9.9 9.9 v12.100000000000001 z" fill="#000" opacity=".18"/><rect x="11.0" y="13.200000000000001" width="88.00000000000001" height="37.400000000000006" rx="4.4" fill="#fff"/><rect x="11.0" y="13.200000000000001" width="88.00000000000001" height="8.8" rx="3.3000000000000003" fill="#5b27d6" opacity=".25"/><rect x="24.200000000000003" y="68.2" width="8.8" height="22.0" rx="2.2" fill="#fff" opacity=".35"/><rect x="40.7" y="68.2" width="8.8" height="22.0" rx="2.2" fill="#fff" opacity=".35"/><rect x="57.2" y="68.2" width="8.8" height="22.0" rx="2.2" fill="#fff" opacity=".35"/><rect x="73.7" y="68.2" width="8.8" height="22.0" rx="2.2" fill="#fff" opacity=".35"/></g><rect x="530" y="200" width="160" height="10" rx="4" fill="#39354a"/><g transform="translate(730,130) scale(1.1)"><path d="M-8 -22 v12 M8 -22 v12 M-14 -10 h28 v8 a14 14 0 0 1 -28 0 z M0 6 v16" stroke="#6e6a7c" stroke-width="4" fill="#6e6a7c" stroke-linecap="round"/><path d="M-24 22 L24 -24" stroke="#d4483b" stroke-width="6" stroke-linecap="round"/></g><g transform="translate(785,100)"><rect width="56" height="50.4" rx="7" fill="#fff" stroke="#5b27d6" stroke-width="4"/><rect width="56" height="15.680000000000001" rx="6" fill="#5b27d6"/><rect x="11.200000000000001" y="25.76" width="10.08" height="7.840000000000001" fill="#5b27d6" opacity=".5"/><rect x="28.0" y="25.76" width="10.08" height="7.840000000000001" fill="#5b27d6" opacity=".5"/><rect x="11.200000000000001" y="38.080000000000005" width="10.08" height="5.6000000000000005" fill="#5b27d6" opacity=".5"/></g><text x="813" y="185" font-family="'Space Grotesk','Hanken Grotesk',system-ui,-apple-system,'Segoe UI',sans-serif" font-size="26" font-weight="700" fill="#4a1fb0" text-anchor="middle">20–30+</text><rect x="550" y="262" width="340" height="2" fill="#dedce6"/><path transform="translate(170,322) scale(0.9)" d="M6 -22 L-12 4 H-1 L-6 22 L12 -4 H1 z" fill="#d98a1c"/><text x="280" y="332" font-family="'Space Grotesk','Hanken Grotesk',system-ui,-apple-system,'Segoe UI',sans-serif" font-size="30" font-weight="700" fill="#39354a" text-anchor="middle">&lt; 20 TB</text><g transform="translate(590,290) scale(0.75)"><path d="M30 0 L58 10 V34 C58 52 46 64 30 70 C14 64 2 52 2 34 V10 Z" fill="#1f9d6b"/><path d="M18 35 L27 44 L43 26" fill="none" stroke="#fff" stroke-width="6" stroke-linecap="round" stroke-linejoin="round"/></g><text x="730" y="332" font-family="'Space Grotesk','Hanken Grotesk',system-ui,-apple-system,'Segoe UI',sans-serif" font-size="30" font-weight="700" fill="#4a1fb0" text-anchor="middle">50 TB +</text></svg>
