<svg xmlns="http://www.w3.org/2000/svg" viewBox="0 0 960 420" width="960" height="420" role="img"><title>Used tape checks: matching generation and a test pass are good; cracks, mould and damp storage are not</title><rect width="960" height="420" rx="22" fill="#f7f6fa"/><rect x="40" y="40" width="330" height="340" rx="18" fill="#f2ecfd" stroke="#dedce6" stroke-width="2"/><g transform="translate(110,150) rotate(0 80.0 73.60000000000001)"><rect width="160.0" height="147.20000000000002" rx="14.4" fill="#4a1fb0"/><path d="M128.0 0 h17.6 a14.4 14.4 0 0 1 14.4 14.4 v17.6 z" fill="#000" opacity=".18"/><rect x="16.0" y="19.200000000000003" width="128.0" height="54.400000000000006" rx="6.4" fill="#fff"/><rect x="16.0" y="19.200000000000003" width="128.0" height="12.8" rx="4.800000000000001" fill="#4a1fb0" opacity=".25"/><rect x="35.2" y="99.2" width="12.8" height="32.0" rx="3.2" fill="#fff" opacity=".35"/><rect x="59.2" y="99.2" width="12.8" height="32.0" rx="3.2" fill="#fff" opacity=".35"/><rect x="83.2" y="99.2" width="12.8" height="32.0" rx="3.2" fill="#fff" opacity=".35"/><rect x="107.2" y="99.2" width="12.8" height="32.0" rx="3.2" fill="#fff" opacity=".35"/></g><path d="M200 150 l14 24 l-10 14 l16 20" stroke="#d4483b" stroke-width="4" fill="none" stroke-linecap="round" stroke-linejoin="round"/><g transform="translate(250,200) scale(1.3)"><circle cx="30" cy="30" r="24" fill="#fff" fill-opacity=".55" stroke="#39354a" stroke-width="7"/><path d="M48 48 L72 72" stroke="#39354a" stroke-width="10" stroke-linecap="round"/></g><circle cx="150" cy="310" r="0" fill="#1f9d6b"/><rect x="410" y="40" width="245" height="165" rx="18" fill="#fff" stroke="#dedce6" stroke-width="2"/><rect x="665" y="40" width="245" height="165" rx="18" fill="#fff" stroke="#dedce6" stroke-width="2"/><rect x="410" y="215" width="245" height="165" rx="18" fill="#fff" stroke="#dedce6" stroke-width="2"/><rect x="665" y="215" width="245" height="165" rx="18" fill="#fff" stroke="#dedce6" stroke-width="2"/><g transform="translate(438,100)"><rect width="60" height="54" rx="6.0" fill="#5b27d6"/><rect x="7.199999999999999" y="7.5600000000000005" width="45.6" height="19.439999999999998" rx="3.0" fill="#fff"/></g><text x="468" y="180" font-family="'Space Mono',ui-monospace,Menlo,monospace" font-size="18" font-weight="700" fill="#6e6a7c" text-anchor="middle">L5–L9</text><path d="M506 126 h20" stroke="#9a96a8" stroke-width="4" stroke-linecap="round"/><g transform="translate(532,102)"><rect width="90" height="48" rx="9" fill="#39354a"/><rect x="9.0" y="17.28" width="49.50000000000001" height="9.600000000000001" rx="4" fill="#fff" opacity=".88"/><circle cx="73.8" cy="22.080000000000002" r="4.32" fill="#1f9d6b"/></g><circle cx="624" cy="70" r="16" fill="#1f9d6b"/><path d="M616.8 70.32 l5.28 5.6 l9.92 -11.2" fill="none" stroke="#fff" stroke-width="3.84" stroke-linecap="round" stroke-linejoin="round"/><g transform="translate(735,80)"><rect width="100" height="90" rx="10.0" fill="#6e6a7c"/><rect x="12.0" y="12.600000000000001" width="76.0" height="32.4" rx="5.0" fill="#fff"/></g><path d="M795 80 l-18 28 l14 10 l-16 30" stroke="#d4483b" stroke-width="5" fill="none" stroke-linecap="round" stroke-linejoin="round"/><circle cx="879" cy="70" r="16" fill="#d4483b"/><path d="M872.6 63.6 L885.4 76.4 M885.4 63.6 L872.6 76.4" stroke="#fff" stroke-width="3.84" stroke-linecap="round"/><g transform="translate(450,265)"><rect width="100" height="90" rx="10.0" fill="#6e6a7c"/><rect x="12.0" y="12.600000000000001" width="76.0" height="32.4" rx="5.0" fill="#fff"/></g><circle cx="480" cy="325" r="8" fill="#1f9d6b" opacity=".85"/><circle cx="498" cy="335" r="6" fill="#1f9d6b" opacity=".85"/><circle cx="522" cy="323" r="7" fill="#1f9d6b" opacity=".85"/><circle cx="510" cy="297" r="5" fill="#1f9d6b" opacity=".85"/><path transform="translate(580,315) scale(0.9)" d="M0 -22 C14 -4 18 2 18 10 a18 18 0 0 1 -36 0 C-18 2 -14 -4 0 -22 z" fill="#2a8fb8"/><circle cx="624" cy="245" r="16" fill="#d4483b"/><path d="M617.6 238.6 L630.4 251.4 M630.4 238.6 L617.6 251.4" stroke="#fff" stroke-width="3.84" stroke-linecap="round"/><g transform="translate(690,277)"><rect width="60" height="54" rx="6.0" fill="#5b27d6"/><rect x="7.199999999999999" y="7.5600000000000005" width="45.6" height="19.439999999999998" rx="3.0" fill="#fff"/></g><path d="M757 303 h24" stroke="#9a96a8" stroke-width="4" stroke-linecap="round"/><g transform="translate(787,277)"><rect width="90" height="48" rx="9" fill="#39354a"/><rect x="9.0" y="17.28" width="49.50000000000001" height="9.600000000000001" rx="4" fill="#fff" opacity=".88"/><circle cx="73.8" cy="22.080000000000002" r="4.32" fill="#1f9d6b"/></g><path d="M695 350 h60" stroke="#dedce6" stroke-width="0"/><circle cx="879" cy="245" r="16" fill="#1f9d6b"/><path d="M871.8 245.32 l5.28 5.6 l9.92 -11.2" fill="none" stroke="#fff" stroke-width="3.84" stroke-linecap="round" stroke-linejoin="round"/></svg>
