<svg xmlns="http://www.w3.org/2000/svg" viewBox="0 0 960 440" width="960" height="440" role="img"><title>Tapes leave the building, travel to a vault and rotate back, outside the blast radius</title><rect width="960" height="440" rx="22" fill="#f7f6fa"/><circle cx="190" cy="220" r="150" fill="#d4483b" opacity=".08"/><circle cx="190" cy="220" r="150" fill="none" stroke="#d4483b" stroke-width="3" stroke-dasharray="8 10" opacity=".6"/><rect x="120" y="160" width="140" height="130" rx="8" fill="#39354a"/><path d="M110 165 L190 110 L270 165 z" fill="#161320"/><rect x="135" y="190" width="28" height="36" rx="4" fill="#e6dcfb"/><rect x="175" y="190" width="28" height="36" rx="4" fill="#e6dcfb"/><rect x="215" y="190" width="28" height="36" rx="4" fill="#e6dcfb"/><path d="M244 98 C232 116 222 126 224 142 C226 158 238 166 250 166 C264 166 274 156 274 140 C274 126 266 118 262 108 C258 118 254 122 250 122 C252 112 250 104 244 98 Z" fill="#d98a1c"/><path d="M250 132 C244 142 242 148 244 154 C246 160 256 160 258 154 C260 148 256 140 250 132 Z" fill="#ffd27a"/><g transform="translate(400,215)"><rect width="130" height="62" rx="10" fill="#5b27d6"/><path d="M130 18 h36 l22 24 v20 h-58 z" fill="#4a1fb0"/><circle cx="34" cy="66" r="14" fill="#161320"/><circle cx="150" cy="66" r="14" fill="#161320"/></g><g transform="translate(430,160) rotate(0 22.5 20.7)"><rect width="45.0" height="41.4" rx="4.05" fill="#4a1fb0"/><path d="M36.0 0 h4.95 a4.05 4.05 0 0 1 4.05 4.05 v4.95 z" fill="#000" opacity=".18"/><rect x="4.5" y="5.4" width="36.0" height="15.3" rx="1.8" fill="#fff"/><rect x="4.5" y="5.4" width="36.0" height="3.6" rx="1.35" fill="#4a1fb0" opacity=".25"/><rect x="9.9" y="27.900000000000002" width="3.6" height="9.0" rx="0.9" fill="#fff" opacity=".35"/><rect x="16.650000000000002" y="27.900000000000002" width="3.6" height="9.0" rx="0.9" fill="#fff" opacity=".35"/><rect x="23.400000000000002" y="27.900000000000002" width="3.6" height="9.0" rx="0.9" fill="#fff" opacity=".35"/><rect x="30.150000000000002" y="27.900000000000002" width="3.6" height="9.0" rx="0.9" fill="#fff" opacity=".35"/></g><g transform="translate(470,160) rotate(0 22.5 20.7)"><rect width="45.0" height="41.4" rx="4.05" fill="#4a1fb0"/><path d="M36.0 0 h4.95 a4.05 4.05 0 0 1 4.05 4.05 v4.95 z" fill="#000" opacity=".18"/><rect x="4.5" y="5.4" width="36.0" height="15.3" rx="1.8" fill="#fff"/><rect x="4.5" y="5.4" width="36.0" height="3.6" rx="1.35" fill="#4a1fb0" opacity=".25"/><rect x="9.9" y="27.900000000000002" width="3.6" height="9.0" rx="0.9" fill="#fff" opacity=".35"/><rect x="16.650000000000002" y="27.900000000000002" width="3.6" height="9.0" rx="0.9" fill="#fff" opacity=".35"/><rect x="23.400000000000002" y="27.900000000000002" width="3.6" height="9.0" rx="0.9" fill="#fff" opacity=".35"/><rect x="30.150000000000002" y="27.900000000000002" width="3.6" height="9.0" rx="0.9" fill="#fff" opacity=".35"/></g><rect x="700" y="140" width="190" height="170" rx="16" fill="#161320"/><circle cx="795" cy="225" r="54" fill="#39354a" stroke="#9a96a8" stroke-width="6"/><line x1="795" y1="225" x2="835" y2="225" stroke="#9a96a8" stroke-width="6" stroke-linecap="round"/><line x1="795" y1="225" x2="775.0" y2="259.8" stroke="#9a96a8" stroke-width="6" stroke-linecap="round"/><line x1="795" y1="225" x2="775.0" y2="190.2" stroke="#9a96a8" stroke-width="6" stroke-linecap="round"/><g transform="translate(830,110) scale(0.7)"><path d="M30 0 L58 10 V34 C58 52 46 64 30 70 C14 64 2 52 2 34 V10 Z" fill="#1f9d6b"/><path d="M18 35 L27 44 L43 26" fill="none" stroke="#fff" stroke-width="6" stroke-linecap="round" stroke-linejoin="round"/></g><line x1="300" y1="250" x2="390" y2="250" stroke="#5b27d6" stroke-width="5" stroke-linecap="round"/><polygon points="390.0,250.0 375.6,257.0 375.6,243.0" fill="#5b27d6"/><line x1="600" y1="250" x2="690" y2="250" stroke="#5b27d6" stroke-width="5" stroke-linecap="round"/><polygon points="690.0,250.0 675.6,257.0 675.6,243.0" fill="#5b27d6"/><path d="M790 340 C 600 410, 330 410, 190 380" stroke="#9a96a8" stroke-width="4" fill="none" stroke-dasharray="4 10"/><polygon points="190.0,380.0 205.8,377.5 201.8,390.8" fill="#9a96a8"/></svg>
