<svg xmlns="http://www.w3.org/2000/svg" viewBox="0 0 960 420" width="960" height="420" role="img"><title>Two panels: a factory defect on a cartridge is covered for life, while damage from a drop, water, fire or a crushed case is not</title><rect width="960" height="420" rx="22" fill="#f7f6fa"/><rect x="40" y="40" width="430" height="340" rx="18" fill="#fff" stroke="#dedce6" stroke-width="2"/><rect x="490" y="40" width="430" height="340" rx="18" fill="#fff" stroke="#dedce6" stroke-width="2"/><rect x="40" y="40" width="430" height="46" rx="18" fill="#1f9d6b"/><rect x="40" y="60" width="430" height="26" fill="#1f9d6b"/><path d="M245.4 63 l7.2 8.0 l13.600000000000001 -16.0" fill="none" stroke="#fff" stroke-width="5.6000000000000005" stroke-linecap="round" stroke-linejoin="round"/><rect x="490" y="40" width="430" height="46" rx="18" fill="#d4483b"/><rect x="490" y="60" width="430" height="26" fill="#d4483b"/><path d="M696.6 54.6 l16.799999999999997 16.799999999999997 M713.4 54.6 l-16.799999999999997 16.799999999999997" stroke="#fff" stroke-width="4.8999999999999995" stroke-linecap="round"/><g transform="translate(120,150) rotate(0 75.0 69.0)"><rect width="150.0" height="138.0" rx="13.5" fill="#5b27d6"/><path d="M120.0 0 h16.5 a13.5 13.5 0 0 1 13.5 13.5 v16.5 z" fill="#000" opacity=".18"/><rect x="15.0" y="18.0" width="120.0" height="51.0" rx="6.0" fill="#fff"/><rect x="15.0" y="18.0" width="120.0" height="12.0" rx="4.5" fill="#5b27d6" opacity=".25"/><rect x="33.0" y="93.0" width="12.0" height="30.0" rx="3.0" fill="#fff" opacity=".35"/><rect x="55.5" y="93.0" width="12.0" height="30.0" rx="3.0" fill="#fff" opacity=".35"/><rect x="78.0" y="93.0" width="12.0" height="30.0" rx="3.0" fill="#fff" opacity=".35"/><rect x="100.5" y="93.0" width="12.0" height="30.0" rx="3.0" fill="#fff" opacity=".35"/></g><g transform="translate(280,170)"><circle r="46" cx="40" cy="40" fill="#f2ecfd" stroke="#5b27d6" stroke-width="4"/><path d="M14 40 c0 -18 24 -18 26 0 c2 18 26 18 26 0 c0 -18 -24 -18 -26 0 c-2 18 -26 18 -26 0z" fill="none" stroke="#5b27d6" stroke-width="6"/></g><path d="M160 178 l14 18 l-10 10 l16 16" fill="none" stroke="#161320" stroke-width="3"/><g transform="translate(520,190) rotate(28 35.0 32.199999999999996)"><rect width="70.0" height="64.39999999999999" rx="6.3" fill="#5b27d6"/><path d="M56.0 0 h7.699999999999999 a6.3 6.3 0 0 1 6.3 6.3 v7.699999999999999 z" fill="#000" opacity=".18"/><rect x="7.0" y="8.399999999999999" width="56.0" height="23.799999999999997" rx="2.8" fill="#fff"/><rect x="7.0" y="8.399999999999999" width="56.0" height="5.6" rx="2.0999999999999996" fill="#5b27d6" opacity=".25"/><rect x="15.399999999999999" y="43.4" width="5.6" height="14.0" rx="1.4" fill="#fff" opacity=".35"/><rect x="25.9" y="43.4" width="5.6" height="14.0" rx="1.4" fill="#fff" opacity=".35"/><rect x="36.4" y="43.4" width="5.6" height="14.0" rx="1.4" fill="#fff" opacity=".35"/><rect x="46.9" y="43.4" width="5.6" height="14.0" rx="1.4" fill="#fff" opacity=".35"/></g><path d="M520 130 v40 M560 120 v40" stroke="none"/><path d="M590 160 c 24 36 28 50 0 64 c -30 -14 -24 -28 0 -64z" fill="#2a8fb8"/><path d="M700 235 C 680 205 700 190 700 160 C 724 180 740 200 730 235 C 724 250 706 252 700 235z" fill="#d98a1c"/><path d="M712 240 C 704 228 710 218 714 210 C 722 222 726 232 720 240z" fill="#ffd27a"/><g transform="translate(780,190) rotate(-10 35.0 32.199999999999996)"><rect width="70.0" height="64.39999999999999" rx="6.3" fill="#4a1fb0"/><path d="M56.0 0 h7.699999999999999 a6.3 6.3 0 0 1 6.3 6.3 v7.699999999999999 z" fill="#000" opacity=".18"/><rect x="7.0" y="8.399999999999999" width="56.0" height="23.799999999999997" rx="2.8" fill="#fff"/><rect x="7.0" y="8.399999999999999" width="56.0" height="5.6" rx="2.0999999999999996" fill="#4a1fb0" opacity=".25"/><rect x="15.399999999999999" y="43.4" width="5.6" height="14.0" rx="1.4" fill="#fff" opacity=".35"/><rect x="25.9" y="43.4" width="5.6" height="14.0" rx="1.4" fill="#fff" opacity=".35"/><rect x="36.4" y="43.4" width="5.6" height="14.0" rx="1.4" fill="#fff" opacity=".35"/><rect x="46.9" y="43.4" width="5.6" height="14.0" rx="1.4" fill="#fff" opacity=".35"/></g><path d="M780 240 l36 -26 l-8 28 l30 -10" stroke="#d4483b" stroke-width="5" fill="none" stroke-linecap="round"/><rect x="520" y="310" width="360" height="12" rx="6" fill="#dedce6"/></svg>
